# xmcd
#
# Track frame offsets:
#	150
#	13950
#	29405
#	45293
#	65533
#	84310
#	101170
#	121817
#	137579
#	158371
#	176836
#	188198
#	207988
#
# Disc length: 3530 seconds
#
# Revision: 1
# Processed by: cddbd v1.5.2PL0 Copyright (c) Steve Scherf et al.
# Submitted via: EasyCDDAExtractor 16.0.6.1
#
DISCID=a80dc80d
DTITLE=Eric Bibb - Jericho Road
DYEAR=2013
DGENRE=Blues
TTITLE0=Drinkin' Gourd
TTITLE1=Freedom Train
TTITLE2=Let The Mothers Step Up
TTITLE3=Have A Heart
TTITLE4=The Right Thing
TTITLE5=Death Row Blues
TTITLE6=Can't Please Everybody
TTITLE7=The Lord's Work
TTITLE8=With My Maker I Am One
TTITLE9=They Know
TTITLE10=She Got Mine
TTITLE11=Good Like You
TTITLE12=One Day At A Time
EXTD=YEAR: 2013
EXTT0=
EXTT1=
EXTT2=
EXTT3=
EXTT4=
EXTT5=
EXTT6=
EXTT7=
EXTT8=
EXTT9=
EXTT10=
EXTT11=
EXTT12=
PLAYORDER=
